<?xml version="1.0" encoding="utf-8"?>
<!-- Generator: Adobe Illustrator 15.0.0, SVG Export Plug-In . SVG Version: 6.00 Build 0)  -->
<!DOCTYPE svg PUBLIC "-//W3C//DTD SVG 1.1//EN" "http://www.w3.org/Graphics/SVG/1.1/DTD/svg11.dtd">
<svg version="1.1" xmlns="http://www.w3.org/2000/svg" xmlns:xlink="http://www.w3.org/1999/xlink" x="0px" y="0px"
	 width="83.542px" height="22.208px" viewBox="0 0 83.542 22.208" enable-background="new 0 0 83.542 22.208" xml:space="preserve">
<g id="Vrstva_1">
	<g>
		<g>
			<path fill="#D63633" d="M7.396,17.14v0.697c0,0.113-0.067,0.271-0.157,0.271c-0.113,0-0.18-0.112-0.18-0.293l-0.36-4.861
				c-0.067-0.99,0.09-1.575,0.248-1.777c-0.18-0.091-0.292-0.315-0.292-0.473c0-0.136,0.09-0.338,0.292-0.45
				c-0.27-0.203-0.473-0.271-0.607-2.026L5.865,2.533C5.708,2.488,5.572,2.376,5.505,2.15C5.37,2.285,4.965,2.376,4.65,2.376
				c-0.135,0-0.338-0.023-0.518-0.068C3.975,2.263,3.817,2.218,3.75,2.15c-0.045,0.202-0.18,0.338-0.383,0.383L2.872,8.227
				C2.759,9.69,2.534,9.982,2.287,10.253c0.135,0.135,0.225,0.314,0.225,0.473c0,0.18-0.135,0.359-0.248,0.45
				c0.158,0.247,0.337,0.607,0.248,1.755l-0.337,4.906c0,0.09-0.023,0.248-0.158,0.248c-0.135,0-0.18-0.09-0.18-0.248V17.14H1.679
				l-0.135,1.867c0.158,0,0.45,0.181,0.518,0.405c0.18-0.157,0.405-0.225,0.63-0.225c0.112,0,0.248,0.022,0.382,0.045
				c0.135,0.045,0.248,0.09,0.338,0.18c0.067-0.225,0.315-0.359,0.518-0.359v-1.958H3.772l-0.045,0.787
				c-0.022,0.113-0.09,0.248-0.18,0.248S3.39,18.017,3.39,17.837l0.157-2.317c0-0.248,0.135-0.474,0.36-0.474h0.72
				c0.248,0,0.382,0.248,0.427,0.474l0.158,2.272c0.022,0.158,0,0.315-0.09,0.315c-0.09,0-0.135-0.112-0.158-0.203l-0.067-0.72H4.74
				l0.045,1.846c0.225,0,0.585,0.157,0.653,0.382c0.203-0.157,0.607-0.225,0.923-0.225c0.158,0,0.337,0.022,0.518,0.045
				c0.158,0.045,0.337,0.09,0.428,0.18c0.045-0.225,0.292-0.405,0.472-0.405L7.576,17.14H7.396z M4.29,13.403
				c-0.36,0-0.495-0.18-0.473-0.765c0.045-0.586,0.27-1.283,0.45-1.463c-0.135-0.091-0.18-0.248-0.18-0.45
				c0-0.226,0.09-0.36,0.203-0.473c-0.112-0.136-0.203-0.698-0.203-1.148L4.2,6.922c0-0.226,0.022-0.315,0.09-0.315
				s0.113,0.09,0.113,0.315l0.09,2.183c0,0.271-0.022,1.013-0.135,1.148c0.135,0.135,0.203,0.292,0.203,0.473
				c0.023,0.18-0.045,0.314-0.18,0.45c0.135,0.225,0.36,0.81,0.405,1.463C4.83,13.246,4.695,13.403,4.29,13.403z M15.994,17.072
				v0.81c0,0.113-0.068,0.181-0.18,0.181c-0.113,0-0.158-0.046-0.158-0.203v-4.682c0-1.529,0.248-1.935,0.428-2.048
				c-0.18-0.112-0.27-0.314-0.27-0.449c0-0.158,0.067-0.36,0.202-0.45c-0.135-0.091-0.36-0.473-0.36-1.711V3.951
				c0-0.248,0.045-0.405,0.135-0.405c0.112,0,0.135,0.09,0.135,0.292v0.631h0.158l0.18-1.936c-0.248,0-0.585-0.203-0.653-0.383
				c-0.18,0.135-0.675,0.226-0.968,0.226c-0.113,0-0.315-0.023-0.495-0.068S13.81,2.195,13.72,2.15
				c-0.112,0.135-0.54,0.315-0.833,0.315L12.19,9.06h-0.135L11.38,2.466c-0.315,0-0.72-0.158-0.833-0.315
				c-0.158,0.09-0.585,0.226-0.945,0.226c-0.157,0-0.36-0.023-0.518-0.068C8.904,2.263,8.769,2.195,8.679,2.15
				c-0.09,0.135-0.496,0.383-0.766,0.383l0.158,1.891h0.203V3.815c0-0.225,0.067-0.337,0.18-0.337c0.09,0,0.135,0.067,0.135,0.518
				v4.546c0,1.238-0.225,1.553-0.382,1.688c0.203,0.135,0.248,0.247,0.248,0.45c0,0.202-0.068,0.314-0.225,0.449
				c0.157,0.158,0.36,0.45,0.36,1.756v4.906c0,0.248-0.022,0.271-0.135,0.271c-0.09,0-0.135-0.046-0.135-0.226v-0.81h-0.18
				l-0.202,1.979c0.225,0,0.63,0.226,0.743,0.405c0.112-0.112,0.382-0.225,0.63-0.225c0.158,0,0.292,0.022,0.428,0.067
				c0.135,0.022,0.225,0.09,0.27,0.157c0.09-0.247,0.405-0.427,0.653-0.427l-0.315-1.891h-0.18v0.742
				c0,0.226-0.045,0.248-0.158,0.248s-0.18-0.045-0.18-0.293v-4.366c0-1.013,0.158-2.048,0.338-2.296
				c-0.158-0.135-0.203-0.247-0.203-0.449c0-0.181,0.067-0.338,0.18-0.45c-0.09-0.113-0.315-0.54-0.315-1.621V6.224h0.135
				l0.27,2.746c0.09,0.878,0.09,1.103,0.022,1.238c0.135,0.135,0.248,0.292,0.248,0.473c0,0.18-0.067,0.337-0.203,0.449
				c0.09,0.136,0.18,0.383,0.337,1.778l0.675,6.077c0.135,0,0.405,0.202,0.518,0.427c0.09-0.225,0.315-0.427,0.473-0.427L13,12.684
				c0.113-0.923,0.203-1.396,0.338-1.554c-0.158-0.067-0.248-0.314-0.248-0.495c0-0.157,0.112-0.337,0.27-0.427
				c-0.045-0.136-0.068-0.721,0-1.261l0.315-2.724h0.113v2.341c0,0.945-0.203,1.53-0.315,1.666c0.18,0.112,0.203,0.314,0.203,0.45
				c0,0.202-0.113,0.359-0.203,0.449c0.135,0.136,0.337,0.653,0.315,1.936v4.547c0,0.338-0.068,0.473-0.18,0.473
				c-0.09,0-0.158-0.068-0.158-0.293v-0.697h-0.158l-0.202,1.868c0.248,0,0.675,0.247,0.743,0.449
				c0.203-0.157,0.607-0.225,0.968-0.225c0.203,0,0.382,0.022,0.563,0.045c0.158,0.045,0.315,0.09,0.405,0.18
				c0.045-0.27,0.382-0.427,0.63-0.427l-0.248-1.913H15.994z M21.958,14.349c-0.63-0.293-0.788-0.405-0.788-1.891h-0.157
				c0,1.396-0.18,1.598-0.788,1.846c0.135,0.27,0.158,0.72,0.158,1.237v1.621c0,0.99-0.135,1.147-0.563,1.147
				c-0.473,0-0.653-0.157-0.653-0.697v-4.614c0-1.261,0-1.553,0.36-1.553c0.135,0,0.315,0.135,0.315,0.338
				c0,0.18-0.022,0.292-0.09,0.428c-0.067,0.157-0.135,0.359-0.135,0.585c0,0.405,0.292,0.63,0.563,0.585
				c-0.09-0.112-0.135-0.247-0.135-0.383c0-0.157,0.135-0.292,0.427-0.563c0.158-0.18,0.271-0.36,0.271-0.63
				c0-0.315-0.158-0.54-0.383-0.721l0.518-0.382l-0.495-0.428c0.248-0.158,0.36-0.383,0.36-0.631c0-0.225-0.158-0.495-0.271-0.607
				c-0.225-0.225-0.315-0.36-0.315-0.495s0.022-0.247,0.09-0.36c-0.203-0.022-0.585,0.248-0.585,0.608
				c0,0.18,0.045,0.359,0.09,0.495c0.045,0.112,0.09,0.18,0.09,0.359c0,0.136-0.112,0.338-0.27,0.338
				c-0.248,0-0.405-0.09-0.405-1.08V4.424c0-0.9,0.225-1.148,0.608-1.148c0.427,0,0.607,0.338,0.607,1.126v1.372
				c0,0.743-0.067,1.036-0.225,1.238c0.63,0.271,0.788,0.607,0.788,1.846h0.18c0-1.283,0.112-1.575,0.743-1.846
				c-0.135-0.247-0.157-0.63-0.157-1.215V3.636c0-0.652,0.067-0.968,0.202-1.08c-0.225-0.022-0.518-0.226-0.585-0.405
				c-0.158,0.112-0.382,0.226-0.54,0.226c-0.27,0-0.45-0.091-0.63-0.136c-0.18-0.045-0.36-0.09-0.63-0.09
				c-0.158,0-0.315,0.022-0.518,0.09S18.56,2.376,18.2,2.376c-0.18,0-0.382-0.023-0.54-0.068s-0.27-0.09-0.36-0.157
				c-0.157,0.226-0.405,0.383-0.697,0.405l0.203,1.936h0.18V3.748c0.022-0.18,0.067-0.247,0.18-0.247
				c0.09,0,0.113,0.067,0.113,0.247v4.659c0,1.035-0.203,1.598-0.405,1.801c0.157,0.135,0.27,0.314,0.27,0.45
				c0,0.157-0.113,0.359-0.27,0.449c0.157,0.226,0.405,0.766,0.405,2.229v4.321c0,0.247-0.045,0.338-0.158,0.338
				c-0.113,0-0.135-0.091-0.135-0.36v-0.72h-0.203l-0.203,2.024c0.226,0.046,0.585,0.271,0.675,0.473
				c0.158-0.157,0.36-0.225,0.563-0.225c0.27,0,0.54,0.045,0.765,0.09s0.45,0.135,0.72,0.135c0.337,0,0.518-0.067,0.698-0.112
				c0.157-0.045,0.337-0.112,0.63-0.112c0.135,0,0.248,0.022,0.36,0.045c0.112,0.022,0.202,0.067,0.315,0.112
				c0.067-0.135,0.428-0.338,0.607-0.382c-0.157-0.181-0.202-0.315-0.202-1.418v-2.004C21.711,14.979,21.801,14.552,21.958,14.349z
				 M28.238,17.14v0.652c0,0.135-0.045,0.18-0.112,0.18c-0.09,0-0.135-0.112-0.135-0.314v-5.019c0-1.081-0.585-1.554-1.103-1.846
				c0.675-0.36,1.103-0.811,1.103-2.094V4.491c0-1.688-1.395-2.341-2.363-2.341c-0.518,0-0.811,0.09-1.058,0.135
				c-0.271,0.045-0.541,0.091-0.855,0.091c-0.135,0-0.315-0.023-0.45-0.068s-0.248-0.112-0.292-0.157
				c-0.09,0.202-0.473,0.36-0.743,0.315l0.225,2.07h0.18v-0.63c0-0.315,0.045-0.36,0.135-0.36c0.067,0,0.113,0.022,0.113,0.337
				v3.781c0,1.44-0.023,2.251-0.473,2.611c0.226,0.157,0.315,0.314,0.315,0.473c0,0.067-0.022,0.135-0.067,0.202
				c-0.045,0.067-0.113,0.135-0.203,0.202c0.27,0.36,0.428,1.036,0.428,2.139v4.208c0,0.338-0.045,0.383-0.135,0.383
				c-0.135,0-0.158-0.157-0.158-0.314v-0.608h-0.18l-0.27,2.026c0.203,0,0.653,0.27,0.743,0.427
				c0.157-0.135,0.585-0.225,0.877-0.225c0.158,0,0.337,0.022,0.518,0.067s0.338,0.112,0.428,0.157
				c0.135-0.18,0.518-0.382,0.788-0.382l-0.225-1.913h-0.18v0.607c0,0.202-0.023,0.226-0.09,0.226c-0.18,0-0.248-0.271-0.248-1.238
				v-4.321c0-0.787,0.18-0.945,0.653-0.945c0.495,0,0.743,0.135,0.743,0.968v6.392c0.248,0,0.563,0.338,0.63,0.607
				c0.157-0.112,0.427-0.135,0.607-0.135c0.09,0,0.203,0,0.315,0.022c0.113,0.022,0.225,0.067,0.27,0.112
				c0.09-0.18,0.473-0.405,0.675-0.405l-0.225-1.867H28.238z M26.145,9.217c0,0.9-0.225,1.081-0.72,1.081
				c-0.473,0-0.675-0.181-0.675-0.811V4.198c0-0.563,0.248-0.855,0.653-0.855c0.36,0,0.743,0.181,0.743,0.878V9.217z M31.727,4.604
				l0.248-2.048c-0.225,0.022-0.607-0.18-0.697-0.405c-0.158,0.135-0.496,0.226-0.878,0.226c-0.18,0-0.36-0.023-0.495-0.068
				c-0.158-0.045-0.27-0.09-0.36-0.157c-0.09,0.18-0.54,0.405-0.72,0.383l0.203,1.936h0.158V3.883
				c0.022-0.27,0.045-0.382,0.157-0.382c0.09,0,0.135,0.09,0.135,0.382v4.816c0,1.059-0.18,1.373-0.337,1.599
				c0.157,0.067,0.248,0.27,0.248,0.45c0,0.157-0.113,0.337-0.248,0.428c0.157,0.135,0.337,0.428,0.337,1.598v4.816
				c0,0.36-0.045,0.473-0.135,0.473c-0.135,0-0.157-0.067-0.157-0.315V17.05h-0.18l-0.225,1.867c0.225,0.046,0.54,0.248,0.698,0.495
				c0.203-0.135,0.383-0.225,0.855-0.225c0.248,0,0.405,0.022,0.541,0.067c0.157,0.022,0.248,0.09,0.337,0.157
				c0.113-0.202,0.473-0.449,0.698-0.427l-0.112-1.801h-0.203v0.563c0,0.18-0.023,0.27-0.135,0.27c-0.09,0-0.135-0.066-0.135-0.494
				v-4.749c0-0.945,0.157-1.396,0.36-1.598c-0.135-0.091-0.248-0.248-0.248-0.428c0-0.181,0.09-0.383,0.248-0.45
				c-0.18-0.181-0.36-0.473-0.36-1.599V3.793c0-0.225,0.022-0.314,0.112-0.314s0.135,0.067,0.135,0.27v0.855H31.727z M35.554,7.079
				c0.473,0.203,0.765,0.428,0.765,1.711h0.18c0-1.171,0.158-1.508,0.743-1.688c-0.135-0.135-0.248-0.518-0.248-1.26V4.041
				c0-0.63,0.09-1.193,0.203-1.373c-0.248,0-0.496-0.135-0.563-0.383c-0.112,0.112-0.203,0.158-0.428,0.158
				c-0.203,0-0.427-0.067-0.63-0.158c-0.203-0.09-0.45-0.135-0.698-0.135c-1.103,0-2.071,0.518-2.071,3.083v3.219
				c0,0.968-0.112,1.575-0.36,1.778c0.203,0.135,0.292,0.359,0.292,0.495c0,0.157-0.067,0.359-0.292,0.518
				c0.27,0.292,0.36,1.013,0.36,2.048v3.443c0,2.048,0.811,2.678,2.184,2.678c1.575,0,2.093-0.923,2.093-2.453v-1.643
				c0-0.607,0.045-0.833,0.158-0.99c-0.563-0.271-0.765-0.495-0.765-1.846h-0.158c0,1.485-0.18,1.599-0.743,1.846
				c0.112,0.135,0.18,0.428,0.18,0.99v2.138c0,0.586-0.203,0.855-0.563,0.855c-0.36,0-0.585-0.27-0.585-0.855v-4.163
				c0-1.103,0.09-1.801,0.36-2.048c-0.203-0.158-0.292-0.338-0.292-0.518c0-0.181,0.09-0.383,0.292-0.495
				c-0.18-0.181-0.36-0.473-0.36-1.778l0.022-4.231c0-0.563,0.135-0.9,0.54-0.9c0.473,0,0.585,0.383,0.585,0.9v1.621
				C35.756,6.27,35.688,6.787,35.554,7.079z M50.026,2.15c-0.09,0.112-0.405,0.226-0.63,0.226c-0.09,0-0.225-0.023-0.337-0.068
				s-0.203-0.112-0.271-0.157c-0.135,0.202-0.45,0.315-0.765,0.315l-0.067,2.025h0.158l0.112-0.878
				c0.023-0.112,0.09-0.18,0.181-0.18c0.09,0,0.157,0.112,0.135,0.27l-0.9,5.514h-0.067l-0.675-5.514c0-0.112,0-0.225,0.09-0.225
				c0.09,0,0.135,0.045,0.18,0.202l0.09,0.652h0.158l-0.09-1.822c-0.293,0-0.563-0.181-0.653-0.36
				c-0.158,0.09-0.653,0.226-0.99,0.226c-0.18,0-0.36-0.046-0.518-0.091c-0.135-0.045-0.27-0.09-0.383-0.135
				c-0.072,0.091-0.234,0.236-0.412,0.314c-0.247-0.002-0.558-0.181-0.669-0.314c-0.113,0.09-0.382,0.226-0.585,0.226
				c-0.09,0-0.203-0.046-0.315-0.091c-0.09-0.045-0.18-0.09-0.248-0.135c-0.09,0.157-0.45,0.315-0.765,0.315l-0.451,1.98
				l0.158,0.022l0.247-0.811c0.068-0.202,0.158-0.225,0.248-0.18s0.09,0.157,0.045,0.337l-1.913,5.987h-0.067V3.974
				c0-0.293,0.067-0.45,0.203-0.45c0.09,0,0.158,0.09,0.158,0.247l0.045,0.676h0.135l0.225-1.98c-0.225,0.022-0.54-0.136-0.63-0.315
				c-0.203,0.135-0.698,0.226-0.99,0.226c-0.158,0-0.338-0.023-0.518-0.068C38.525,2.263,38.39,2.218,38.3,2.15
				c-0.113,0.157-0.518,0.315-0.765,0.315l0.158,1.913h0.18V3.726c0-0.314,0.068-0.383,0.18-0.383c0.113,0,0.113,0.046,0.113,0.338
				V8.43c0,1.013-0.158,1.485-0.405,1.665c0.18,0.158,0.292,0.315,0.292,0.495c0,0.203-0.135,0.405-0.292,0.495
				c0.225,0.226,0.405,0.608,0.405,2.003v4.547c0,0.225-0.023,0.382-0.135,0.382c-0.09,0-0.158-0.09-0.158-0.27v-0.788h-0.135
				l-0.225,2.004c0.203,0,0.585,0.247,0.675,0.449c0.18-0.135,0.541-0.225,0.878-0.225c0.158,0,0.36,0.022,0.518,0.067
				c0.18,0.022,0.36,0.09,0.45,0.157c0.09-0.18,0.405-0.405,0.675-0.405l-0.203-1.89h-0.157v0.697c0,0.226-0.068,0.271-0.158,0.271
				c-0.113,0-0.135-0.068-0.135-0.293v-4.591l0.518-1.688h0.045l0.945,6.189c0.045,0.27,0.045,0.338-0.045,0.383
				c-0.112,0.045-0.203,0-0.27-0.226l-0.18-0.72h-0.135l0.157,1.891c0.293-0.023,0.653,0.18,0.788,0.382
				c0.18-0.157,0.63-0.225,0.922-0.225c0.158,0,0.338,0.022,0.518,0.067c0.18,0.045,0.337,0.09,0.405,0.157
				c0.09-0.157,0.338-0.405,0.518-0.405l-0.36-1.8h-0.135v0.743c0,0.157-0.022,0.225-0.09,0.225c-0.09,0-0.158-0.067-0.18-0.271
				l-0.81-5.288c-0.135-0.811,0-1.193,0.18-1.396c-0.18-0.09-0.315-0.18-0.383-0.427c-0.045-0.158,0.045-0.428,0.248-0.54
				c-0.473-0.608-0.653-1.306-0.72-2.026l1.373-4.365c0.09-0.293,0.18-0.338,0.27-0.315s0.112,0.112,0.067,0.247l-0.18,0.676h0.18
				l0.583-1.729l0.295,1.617h0.18l-0.067-0.631c-0.022-0.157,0.045-0.202,0.112-0.202c0.09,0,0.135,0.045,0.158,0.202l0.743,4.861
				c0.158,1.08,0.09,1.463-0.067,1.688c0.203,0.067,0.382,0.202,0.382,0.405c0,0.18-0.044,0.404-0.247,0.539
				c0.247,0.226,0.607,0.541,0.607,2.409v4.096c0,0.226-0.022,0.405-0.158,0.405c-0.135,0-0.18-0.135-0.18-0.405v-0.63h-0.158
				l-0.18,1.958c0.271,0,0.518,0.157,0.63,0.359c0.248-0.18,0.652-0.225,0.922-0.225c0.135,0,0.315,0.022,0.495,0.067
				c0.181,0.022,0.338,0.09,0.428,0.157c0.135-0.202,0.495-0.337,0.81-0.337l-0.248-1.846h-0.157v0.63c0,0.271-0.067,0.36-0.18,0.36
				c-0.113,0-0.181-0.067-0.181-0.36v-4.23c0-1.599,0.383-2.161,0.608-2.363c-0.158-0.09-0.225-0.248-0.225-0.428
				c0-0.248,0.225-0.428,0.405-0.45c-0.135-0.203-0.271-0.473-0.09-1.53l0.9-5.042c0.045-0.202,0.067-0.27,0.157-0.27
				c0.068,0,0.09,0.067,0.09,0.202l-0.045,0.743h0.157l0.293-1.958C50.274,2.511,50.094,2.308,50.026,2.15z"/>
		</g>
	</g>
</g>
<g id="Vrstva_2">
	<g>
		<g>
			<path fill="#FFFFFF" d="M55.9,11.806c-0.225,0.202-0.584,0.27-1.012,0.27s-0.721-0.09-0.924-0.27
				c-0.09,0.293-0.404,0.473-0.652,0.45l0.158,2.048h0.203v-0.721c0-0.337,0.045-0.382,0.156-0.382c0.09,0,0.113,0.022,0.113,0.404
				v3.399c0,1.147-0.09,1.35-0.496,1.35c-0.404,0-0.563-0.202-0.563-1.35v-3.557c0-1.192,0.068-2.003,0.338-2.296
				c-0.18-0.112-0.248-0.292-0.248-0.427c0-0.136,0.091-0.293,0.293-0.428c-0.225-0.203-0.383-0.563-0.383-2.025V5.031
				c0-1.688,0.338-1.801,0.879-1.801c0.473,0,0.899,0.112,0.899,1.801v0.788c0,0.697-0.067,0.945-0.202,1.08
				c0.607,0.292,0.72,0.563,0.72,1.868h0.181c0-1.328,0.157-1.576,0.742-1.868c-0.18-0.135-0.338-0.383-0.338-1.08V4.063
				c0-1.103,0.09-1.328,0.226-1.485c-0.226,0.022-0.495-0.112-0.608-0.428c-0.135,0.18-0.27,0.226-0.427,0.226
				c-0.226,0-0.428-0.068-0.675-0.113c-0.248-0.045-0.563-0.112-1.036-0.112c-1.192,0-2.228,0.585-2.228,1.98V8.25
				c0,1.53-0.135,1.845-0.361,2.048c0.181,0.135,0.271,0.337,0.271,0.428c0,0.202-0.068,0.314-0.271,0.427
				c0.203,0.226,0.361,0.405,0.361,1.892v4.275c0,1.598,1.328,2.093,2.34,2.093c0.361,0,0.676-0.021,0.879-0.09
				c0.18-0.067,0.314-0.135,0.539-0.135c0.113,0,0.248,0.022,0.36,0.045c0.112,0.045,0.226,0.09,0.293,0.18
				c0.045-0.18,0.18-0.359,0.337-0.405v-5.445c0-0.36,0.068-0.405,0.203-0.405s0.157,0.045,0.157,0.427v0.743h0.181l0.248-2.07
				C56.283,12.278,55.991,12.099,55.9,11.806z M62.428,17.14v0.652c0,0.135-0.045,0.18-0.111,0.18c-0.091,0-0.136-0.112-0.136-0.314
				v-5.019c0-1.081-0.585-1.554-1.103-1.846c0.675-0.36,1.103-0.811,1.103-2.094V4.491c0-1.688-1.396-2.341-2.363-2.341
				c-0.518,0-0.81,0.09-1.058,0.135c-0.27,0.045-0.54,0.091-0.855,0.091c-0.135,0-0.314-0.023-0.449-0.068
				c-0.136-0.045-0.248-0.112-0.293-0.157c-0.09,0.202-0.473,0.36-0.743,0.315l0.226,2.07h0.18v-0.63c0-0.315,0.045-0.36,0.135-0.36
				c0.068,0,0.113,0.022,0.113,0.337v3.781c0,1.44-0.023,2.251-0.473,2.611c0.225,0.157,0.314,0.314,0.314,0.473
				c0,0.067-0.021,0.135-0.067,0.202c-0.045,0.067-0.112,0.135-0.202,0.202c0.27,0.36,0.428,1.036,0.428,2.139v4.208
				c0,0.338-0.045,0.383-0.136,0.383c-0.135,0-0.157-0.157-0.157-0.314v-0.608H56.6l-0.271,2.026c0.202,0,0.653,0.27,0.743,0.427
				c0.156-0.135,0.584-0.225,0.877-0.225c0.158,0,0.338,0.022,0.518,0.067c0.181,0.045,0.338,0.112,0.428,0.157
				c0.135-0.18,0.518-0.382,0.788-0.382l-0.226-1.913h-0.18v0.607c0,0.202-0.022,0.226-0.09,0.226c-0.18,0-0.248-0.271-0.248-1.238
				v-4.321c0-0.787,0.181-0.945,0.652-0.945c0.496,0,0.743,0.135,0.743,0.968v6.392c0.247,0,0.563,0.338,0.63,0.607
				c0.158-0.112,0.428-0.135,0.608-0.135c0.09,0,0.202,0,0.315,0.022c0.112,0.022,0.225,0.067,0.27,0.112
				c0.09-0.18,0.473-0.405,0.676-0.405l-0.226-1.867H62.428z M60.335,9.217c0,0.9-0.226,1.081-0.72,1.081
				c-0.473,0-0.676-0.181-0.676-0.811V4.198c0-0.563,0.248-0.855,0.652-0.855c0.361,0,0.743,0.181,0.743,0.878V9.217z M65.918,4.604
				l0.247-2.048c-0.226,0.022-0.608-0.18-0.698-0.405c-0.157,0.135-0.495,0.226-0.877,0.226c-0.181,0-0.36-0.023-0.496-0.068
				c-0.157-0.045-0.27-0.09-0.359-0.157c-0.09,0.18-0.54,0.405-0.721,0.383l0.203,1.936h0.157V3.883
				c0.022-0.27,0.045-0.382,0.157-0.382c0.09,0,0.135,0.09,0.135,0.382v4.816c0,1.059-0.18,1.373-0.337,1.599
				c0.157,0.067,0.247,0.27,0.247,0.45c0,0.157-0.111,0.337-0.247,0.428c0.157,0.135,0.337,0.428,0.337,1.598v4.816
				c0,0.36-0.045,0.473-0.135,0.473c-0.135,0-0.157-0.067-0.157-0.315V17.05h-0.18l-0.226,1.867
				c0.226,0.046,0.541,0.248,0.697,0.495c0.203-0.135,0.383-0.225,0.855-0.225c0.248,0,0.406,0.022,0.541,0.067
				c0.157,0.022,0.247,0.09,0.337,0.157c0.112-0.202,0.474-0.449,0.698-0.427l-0.113-1.801h-0.202v0.563
				c0,0.18-0.022,0.27-0.136,0.27c-0.09,0-0.135-0.066-0.135-0.494v-4.749c0-0.945,0.158-1.396,0.361-1.598
				c-0.136-0.091-0.248-0.248-0.248-0.428c0-0.181,0.09-0.383,0.248-0.45c-0.182-0.181-0.361-0.473-0.361-1.599V3.793
				c0-0.225,0.023-0.314,0.113-0.314s0.135,0.067,0.135,0.27v0.855H65.918z M71.837,14.528c-0.608-0.247-0.765-0.585-0.765-1.845
				h-0.158c0,1.327-0.09,1.575-0.697,1.822c0.09,0.226,0.201,0.608,0.201,1.599v1.125c0,0.63-0.111,0.99-0.742,0.99
				c-0.629,0-0.697-0.36-0.697-0.99v-4.523c0-1.013,0.068-1.418,0.338-1.688c-0.18-0.09-0.27-0.247-0.27-0.428
				c0-0.18,0.09-0.382,0.27-0.473c-0.27-0.27-0.338-0.585-0.338-1.8V3.906c0-0.293,0.045-0.405,0.18-0.405s0.181,0.09,0.203,0.27
				v0.608h0.157l0.226-1.868c-0.271,0-0.607-0.181-0.721-0.36c-0.135,0.09-0.494,0.226-0.878,0.226c-0.18,0-0.382-0.023-0.54-0.068
				c-0.18-0.045-0.314-0.112-0.383-0.157c-0.09,0.18-0.449,0.36-0.675,0.36l0.136,1.846h0.156V3.838
				c0-0.314,0.046-0.404,0.136-0.404s0.157,0.067,0.157,0.382v4.502c0,0.81-0.157,1.575-0.428,1.8
				c0.181,0.113,0.271,0.315,0.271,0.473c0,0.068-0.022,0.158-0.067,0.226s-0.113,0.135-0.225,0.202
				c0.247,0.202,0.449,0.652,0.449,1.688v4.974c0,0.247-0.045,0.337-0.157,0.337s-0.136-0.09-0.136-0.247v-0.652h-0.18l-0.18,1.822
				c0.293,0,0.652,0.271,0.742,0.473c0.203-0.157,0.36-0.225,0.631-0.225c0.359,0,0.652,0.067,0.945,0.135
				c0.27,0.068,0.54,0.09,0.855,0.09c0.156,0,0.314-0.045,0.473-0.09c0.157-0.022,0.291-0.067,0.427-0.067
				c0.091,0,0.181,0.022,0.293,0.045c0.09,0.022,0.18,0.067,0.271,0.112c0.135-0.225,0.404-0.405,0.697-0.427
				c-0.135-0.248-0.225-0.563-0.225-1.599v-1.282C71.59,15.114,71.68,14.754,71.837,14.528z M73.207,17.391
				c-0.063,0.063-0.219,0.125-0.406,0.125s-0.344-0.063-0.406-0.125c-0.031,0.094-0.156,0.25-0.281,0.281v1.391
				c0.125,0.031,0.25,0.156,0.281,0.281c0.063-0.094,0.219-0.156,0.406-0.156c0.094,0,0.188,0.016,0.25,0.047
				c0.078,0.016,0.125,0.063,0.156,0.109c0.078-0.125,0.172-0.25,0.297-0.281v-1.391C73.379,17.641,73.254,17.516,73.207,17.391z
				 M76.225,10.78c0.328,0.141,0.531,0.297,0.531,1.188h0.125c0-0.813,0.109-1.047,0.516-1.172
				c-0.094-0.094-0.172-0.359-0.172-0.875V8.67c0-0.438,0.063-0.828,0.141-0.953c-0.172,0-0.344-0.094-0.392-0.266
				c-0.077,0.078-0.14,0.109-0.296,0.109c-0.141,0-0.298-0.047-0.438-0.109c-0.141-0.063-0.313-0.094-0.484-0.094
				c-0.767,0-1.438,0.359-1.438,2.141v2.235c0,0.672-0.078,1.094-0.25,1.234c0.141,0.094,0.203,0.25,0.203,0.344
				c0,0.109-0.047,0.25-0.203,0.359c0.188,0.203,0.25,0.703,0.25,1.423v2.391c0,1.422,0.563,1.859,1.516,1.859
				c1.095,0,1.454-0.641,1.454-1.703V16.5c0-0.423,0.031-0.578,0.109-0.688c-0.391-0.188-0.532-0.345-0.532-1.282h-0.108
				c0,1.032-0.126,1.109-0.516,1.282c0.078,0.094,0.125,0.297,0.125,0.688v1.484c0,0.406-0.141,0.594-0.391,0.594
				c-0.251,0-0.407-0.188-0.407-0.594v-2.891c0-0.767,0.063-1.251,0.251-1.423c-0.142-0.109-0.203-0.234-0.203-0.359
				s0.062-0.266,0.203-0.344c-0.126-0.125-0.251-0.328-0.251-1.234l0.017-2.938c0-0.391,0.093-0.625,0.374-0.625
				c0.329,0,0.407,0.266,0.407,0.625v1.126C76.365,10.218,76.318,10.577,76.225,10.78z M80.678,16.703
				c0-0.453,0.048-0.642,0.157-0.751c-0.438-0.188-0.501-0.344-0.501-1.297h-0.109c0,0.938-0.125,1.094-0.515,1.297
				c0.109,0.125,0.155,0.298,0.155,0.751v1.422c0,0.328-0.078,0.391-0.422,0.391c-0.359,0-0.438-0.125-0.359-0.625l0.517-3.235
				c0.094-0.609,0.234-0.922,0.405-1.031c-0.108-0.078-0.171-0.203-0.171-0.313c0-0.141,0.094-0.219,0.249-0.281
				c-0.078-0.125-0.203-0.5-0.124-0.984l0.766-4.454c-0.142,0-0.234-0.094-0.267-0.234c-0.078,0.078-0.188,0.156-0.344,0.156
				c-0.109,0-0.234-0.063-0.391-0.094c-0.14-0.031-0.297-0.063-0.469-0.063c-0.234,0-0.422,0.016-0.547,0.063
				C78.6,7.467,78.49,7.514,78.365,7.514c-0.047,0-0.094-0.016-0.141-0.047c-0.031-0.031-0.063-0.078-0.094-0.109
				c-0.047,0.125-0.375,0.313-0.609,0.281c0.078,0.141,0.141,0.313,0.141,1v1.313c0,0.531-0.031,0.656-0.141,0.797
				c0.406,0.219,0.516,0.375,0.516,1.313h0.109c0-0.938,0.078-1.109,0.5-1.313c-0.094-0.125-0.172-0.313-0.172-0.797V8.717
				c0-0.516,0.094-0.609,0.407-0.609c0.343,0,0.499,0.156,0.39,0.751l-0.547,3.156c-0.109,0.594-0.219,0.844-0.359,0.922
				c0.141,0.125,0.157,0.219,0.157,0.344c0,0.188-0.11,0.313-0.267,0.359c0.094,0.141,0.172,0.453,0.063,1.109l-0.688,4.345
				c0.156,0.016,0.297,0.109,0.344,0.25c0.078-0.094,0.188-0.156,0.297-0.156c0.078,0,0.188,0.047,0.313,0.078
				c0.141,0.031,0.313,0.078,0.516,0.078c0.172,0,0.344-0.016,0.516-0.047c0.156-0.016,0.313-0.031,0.422-0.031
				c0.095,0,0.172,0,0.234,0.016s0.109,0.031,0.142,0.063c0.078-0.141,0.25-0.266,0.422-0.297c-0.109-0.125-0.157-0.313-0.157-0.953
				V16.703z"/>
		</g>
	</g>
</g>
</svg>
